Coordinates
version=1
nRows=6
nColumns=46
inDegrees=yes

Units are S.I. units (second, meters, Newtons, ...)
Angles are in degrees.

endheader
time	pelvis_tilt	pelvis_list	pelvis_rotation	pelvis_tx	pelvis_ty	pelvis_tz	bb_angle	bb_tx	bb_ty	bb_tz	hip_flexion_r	hip_adduction_r	hip_rotation_r	knee_angle_r	knee_angle_r_beta	ankle_angle_r	subtalar_angle_r	mtp_angle_r	crank_angle_r	hip_flexion_l	hip_adduction_l	hip_rotation_l	knee_angle_l	knee_angle_l_beta	ankle_angle_l	subtalar_angle_l	mtp_angle_l	crank_angle_l	lumbar_extension	lumbar_bending	lumbar_rotation	arm_flex_r	arm_add_r	arm_rot_r	elbow_flex_r	pro_sup_r	wrist_flex_r	wrist_dev_r	arm_flex_l	arm_add_l	arm_rot_l	elbow_flex_l	pro_sup_l	wrist_flex_l	wrist_dev_l
      7.50500000	    -26.15060343	     -5.17750658	      0.87236507	      0.22240071	      1.03415743	     -0.21668001	      0.00000000	      0.50000000	      0.00000000	      0.25000000	     75.29576413	     -0.07958678	      2.76969818	    109.52514454	      1.91157439	     -0.52917324	     -8.52642431	      0.00000000	      0.00000000	     50.99964072	     -5.04824031	      7.97517439	     35.34635495	      0.61691027	     13.16708722	    -13.15816574	      0.00000000	      0.00000000	    -59.35590280	     -1.43591744	      3.66451238	     56.89078276	    -35.45552857	     18.13149099	    106.46010085	     53.12686986	      0.00000000	      0.00000000	     66.13431249	    -19.84374544	     25.00797686	    103.38014953	     51.65190609	      0.00000000	      0.00000000
      7.51000000	    -26.23534559	     -5.89172556	      0.12740302	      0.22260553	      1.03390321	     -0.21682362	      0.00000000	      0.50000000	      0.00000000	      0.25000000	     76.95612912	      0.60623775	      2.30513465	    110.90501792	      1.93565772	     -0.46774531	     -8.30098360	      0.00000000	      0.00000000	     49.45941484	     -6.30622536	      7.62177358	     33.30297455	      0.58124656	     12.37533243	    -12.44910624	      0.00000000	      0.00000000	    -59.19505766	     -1.22645795	      4.66562578	     57.18762780	    -35.26888042	     18.27894129	    106.50855582	     53.14731887	      0.00000000	      0.00000000	     65.89769165	    -19.94355268	     24.96563943	    103.40025581	     51.65911317	      0.00000000	      0.00000000
      7.51500000	    -26.21514071	     -6.46462221	     -0.64729767	      0.22295473	      1.03390599	     -0.21704194	      0.00000000	      0.50000000	      0.00000000	      0.25000000	     78.51781238	      1.25969764	      1.98942053	    112.19101056	      1.95810253	     -0.46865103	     -8.05421882	      0.00000000	      0.00000000	     47.80095911	     -7.50754995	      6.91198217	     31.34853605	      0.54713517	     11.58369742	    -11.60558080	      0.00000000	      0.00000000	    -59.17309410	     -1.10102039	      5.57882033	     57.58294211	    -35.09880851	     18.52447330	    106.57094279	     53.17935126	      0.00000000	      0.00000000	     65.49117466	    -20.00916374	     24.81064406	    103.40651468	     51.65585519	      0.00000000	      0.00000000
      7.52000000	    -26.27284003	     -7.02269963	     -1.31834916	      0.22314979	      1.03360927	     -0.21746848	      0.00000000	      0.50000000	      0.00000000	      0.25000000	     80.17881294	      1.65203198	      1.54074817	    113.43235217	      1.97976802	     -0.12688397	     -8.06595175	      0.00000000	      0.00000000	     46.37420180	     -8.61047267	      6.16478889	     29.67461727	      0.51791978	     10.87245158	    -10.64893464	      0.00000000	      0.00000000	    -59.07595967	     -0.90856908	      6.42980354	     57.94959101	    -34.92762480	     18.77208567	    106.65984576	     53.21340682	      0.00000000	      0.00000000	     65.19579511	    -20.11954755	     24.57123929	    103.44518528	     51.64463494	      0.00000000	      0.00000000
      7.52500000	    -26.12837270	     -7.53775868	     -2.09220060	      0.22363666	      1.03361271	     -0.21757013	      0.00000000	      0.50000000	      0.00000000	      0.25000000	     81.58355344	      2.34390403	      1.27268366	    114.51571428	      1.99867626	     -0.21254434	     -7.59694065	      0.00000000	      0.00000000	     44.81260234	     -9.86232189	      4.78989595	     28.29722928	      0.49387982	     10.56316455	     -8.99952005	      0.00000000	      0.00000000	    -59.20966202	     -0.59789367	      6.37052866	     59.84155880	    -33.88640709	     21.14708645	    105.64836037	     53.42180386	      0.00000000	      0.00000000	     63.75080954	    -21.14330060	     22.68992730	    104.80612618	     51.90854695	      0.00000000	      0.00000000
      7.53000000	    -26.19836463	     -8.02622619	     -2.50934652	      0.22359008	      1.03301800	     -0.21844626	      0.00000000	      0.50000000	      0.00000000	      0.25000000	     83.28125700	      2.49365555	      0.91523844	    115.57968889	      2.01724612	     -0.08026911	     -7.43574306	      0.00000000	      0.00000000	     43.65582239	    -10.69463209	      4.02060409	     27.09277839	      0.47285819	      9.80756902	     -8.07785522	      0.00000000	      0.00000000	    -59.09444242	     -0.19255665	      7.04597673	     60.13821647	    -33.72824410	     21.20006100	    105.74979668	     53.43536572	      0.00000000	      0.00000000	     63.56164377	    -21.27579944	     22.56050794	    104.79431983	     51.89725775	      0.00000000	      0.00000000
